<svg xmlns="http://www.w3.org/2000/svg" id="SvgjsSvg750158" width="4096" height="2278.2228083107557" version="1.1" xmlns:xlink="http://www.w3.org/1999/xlink" xmlns:svgjs="http://svgjs.com/svgjs"><defs id="SvgjsDefs750159"></defs><g id="SvgjsG750160" transform="translate(328, 328.0000000000001) scale(34.4)" opacity="1"><defs id="SvgjsDefs213265"></defs><g id="SvgjsG213266" transform="scale(0.21645021645021645)" opacity="1"><g id="SvgjsG213267" class="5ZbZXximN" transform="translate(103.3739009944709, -235.30107422385447) scale(6.101573338446595 6.101573338446595)" light-content="false" non-strokable="false" fill="#fc9c00"><path d="M50 61.436c-.466 0-.901-.225-1.171-.604l-5.851-8.239a4.533 4.533 0 0 1-.085-.118l-.214-.302a1.444 1.444 0 0 1-.119-.2c-.066-.1-.133-.199-.193-.305a8.795 8.795 0 0 1-1.145-4.325c0-4.841 3.938-8.779 8.777-8.779s8.777 3.938 8.777 8.779a8.72 8.72 0 0 1-1.35 4.669 1.31 1.31 0 0 1-.1.162l-.191.267-5.967 8.392a1.43 1.43 0 0 1-1.168.603zm-4.857-10.755l.102.143c.02.024.058.081.076.106l4.681 6.592 4.919-6.917.031-.051a5.857 5.857 0 0 0 .955-3.211 5.913 5.913 0 0 0-5.906-5.907 5.912 5.912 0 0 0-5.904 5.907 5.9 5.9 0 0 0 .767 2.902c.032.055.074.114.114.174l.084.123c.028.045.055.091.081.139z"></path></g><g id="SvgjsG213268" class="text" transform="translate(243.43, 209.72829393626188) scale(1)" light-content="false" fill="#04fa1a"><path d="M-234.67 -67.62C-232.31 -67.97 -230.41 -68.27 -228.96 -68.5C-227.52 -68.74 -226.29 -68.86 -225.29 -68.86C-224.64 -68.86 -223.92 -68.05 -223.12 -66.42C-222.32 -64.8 -221.54 -62.63 -220.77 -59.92C-220.01 -57.2 -219.25 -54.09 -218.52 -50.58C-217.78 -47.07 -217.13 -43.4 -216.57 -39.56C-216.01 -35.73 -215.57 -31.89 -215.24 -28.06C-214.92 -24.22 -214.76 -20.62 -214.76 -17.26C-214.76 -16.67 -214.93 -16.09 -215.29 -15.53C-215.64 -14.97 -216.01 -14.4 -216.39 -13.81C-216.78 -13.22 -217.15 -12.6 -217.5 -11.95C-217.85 -11.3 -218.03 -10.59 -218.03 -9.82C-218.03 -6.34 -216.2 -4.1 -212.54 -3.1C-204.64 -0.62 -197.41 1.18 -190.86 2.3C-184.31 3.42 -178.03 3.98 -172.01 3.98C-164.46 3.98 -157.23 3.04 -150.32 1.15C-143.42 -0.74 -137.34 -3.27 -132.09 -6.46C-126.84 -9.65 -122.67 -13.32 -119.57 -17.48C-116.47 -21.64 -114.92 -26.02 -114.92 -30.62C-114.92 -35.17 -116.15 -39.69 -118.6 -44.21C-121.04 -48.72 -124.44 -53.03 -128.77 -57.13C-133.11 -61.23 -138.23 -65.04 -144.13 -68.55C-150.03 -72.06 -156.42 -75.1 -163.29 -77.66C-170.16 -80.23 -177.39 -82.25 -184.97 -83.73C-192.56 -85.2 -200.18 -85.94 -207.85 -85.94C-213.58 -85.94 -218.77 -85.72 -223.43 -85.27C-228.09 -84.83 -232.46 -84.14 -236.53 -83.19C-241.13 -81.95 -243.43 -78.95 -243.43 -74.17C-243.43 -71.75 -243.02 -70.02 -242.19 -68.99C-241.37 -67.96 -239.95 -67.38 -237.94 -67.26C-237.59 -67.26 -237.15 -67.29 -236.62 -67.35C-236.09 -67.41 -235.44 -67.5 -234.67 -67.62ZM-200.59 -69.03C-191.15 -68.03 -182.39 -66.33 -174.31 -63.94C-166.23 -61.55 -159.2 -58.69 -153.25 -55.36C-147.29 -52.03 -142.61 -48.32 -139.22 -44.25C-135.82 -40.18 -134.13 -35.99 -134.13 -31.68C-134.13 -29.09 -135.09 -26.58 -137 -24.16C-138.92 -21.74 -141.49 -19.62 -144.7 -17.79C-147.92 -15.96 -151.64 -14.5 -155.86 -13.41C-160.07 -12.32 -164.49 -11.77 -169.09 -11.77C-172.57 -11.77 -175.95 -11.96 -179.22 -12.35C-182.5 -12.73 -185.4 -13.23 -187.94 -13.85C-190.48 -14.47 -192.51 -15.18 -194.05 -15.98C-195.58 -16.77 -196.38 -17.61 -196.44 -18.5C-196.91 -23.93 -197.36 -28.81 -197.81 -33.14C-198.25 -37.48 -198.71 -41.41 -199.18 -44.92C-199.65 -48.43 -200.12 -51.6 -200.59 -54.43C-201.07 -57.26 -201.57 -59.92 -202.1 -62.4C-202.45 -63.93 -202.72 -65.05 -202.9 -65.76C-203.07 -66.47 -203.16 -66.97 -203.16 -67.26C-203.16 -68.44 -202.31 -69.03 -200.59 -69.03Z M-106.78 -29.38C-106.78 -23.96 -105.81 -18.95 -103.86 -14.38C-101.91 -9.81 -99.2 -5.86 -95.72 -2.52C-92.24 0.81 -88.11 3.42 -83.33 5.31C-78.55 7.2 -73.36 8.14 -67.75 8.14C-62.03 8.14 -56.58 7.07 -51.42 4.91C-46.26 2.76 -41.76 -0.15 -37.92 -3.81C-34.09 -7.46 -31.04 -11.73 -28.76 -16.59C-26.49 -21.46 -25.36 -26.61 -25.36 -32.04C-25.36 -37.58 -26.43 -42.79 -28.59 -47.66C-30.74 -52.53 -33.66 -56.78 -37.35 -60.4C-41.04 -64.03 -45.37 -66.89 -50.36 -68.99C-55.34 -71.08 -60.67 -72.13 -66.33 -72.13C-69.7 -72.13 -73.21 -71.75 -76.87 -70.98C-80.52 -70.21 -84.23 -69.12 -87.97 -67.71C-91.72 -66.29 -95.47 -64.55 -99.21 -62.48C-102.96 -60.42 -106.57 -58.09 -110.06 -55.49C-111.47 -54.37 -112.55 -53.13 -113.29 -51.78C-114.02 -50.42 -114.39 -49.06 -114.39 -47.7C-114.39 -45.82 -113.96 -44.37 -113.11 -43.37C-112.25 -42.36 -111.29 -41.54 -110.23 -40.89C-109.17 -40.24 -108.21 -39.65 -107.36 -39.12C-106.5 -38.59 -106.07 -37.82 -106.07 -36.82C-106.07 -35.34 -106.19 -33.99 -106.43 -32.75C-106.66 -31.51 -106.78 -30.39 -106.78 -29.38ZM-65.8 -7.79C-69.11 -7.79 -72.16 -8.47 -74.96 -9.82C-77.77 -11.18 -80.2 -13.05 -82.26 -15.44C-84.33 -17.83 -85.94 -20.67 -87.09 -23.94C-88.24 -27.22 -88.81 -30.77 -88.81 -34.61C-88.81 -41.63 -87.07 -46.83 -83.59 -50.23C-80.11 -53.62 -75.1 -55.32 -68.55 -55.32C-64.95 -55.32 -61.6 -54.67 -58.5 -53.37C-55.4 -52.07 -52.72 -50.29 -50.45 -48.01C-48.18 -45.74 -46.39 -43.07 -45.09 -40C-43.79 -36.94 -43.15 -33.63 -43.15 -30.09C-43.15 -26.61 -43.87 -23.48 -45.31 -20.71C-46.76 -17.94 -48.59 -15.59 -50.8 -13.67C-53.01 -11.76 -55.45 -10.3 -58.1 -9.29C-60.76 -8.29 -63.32 -7.79 -65.8 -7.79Z M-22.44 -67.62C-20.08 -67.97 -18.17 -68.27 -16.73 -68.5C-15.28 -68.74 -14.06 -68.86 -13.05 -68.86C-12.41 -68.86 -11.68 -68.05 -10.89 -66.42C-10.09 -64.8 -9.31 -62.63 -8.54 -59.92C-7.77 -57.2 -7.02 -54.09 -6.28 -50.58C-5.55 -47.07 -4.9 -43.4 -4.34 -39.56C-3.78 -35.73 -3.33 -31.89 -3.01 -28.06C-2.68 -24.22 -2.52 -20.62 -2.52 -17.26C-2.52 -16.67 -2.7 -16.09 -3.05 -15.53C-3.41 -14.97 -3.78 -14.4 -4.16 -13.81C-4.54 -13.22 -4.91 -12.6 -5.27 -11.95C-5.62 -11.3 -5.8 -10.59 -5.8 -9.82C-5.8 -6.34 -3.97 -4.1 -0.31 -3.1C7.6 -0.62 14.82 1.18 21.37 2.3C27.92 3.42 34.21 3.98 40.23 3.98C47.78 3.98 55.01 3.04 61.91 1.15C68.81 -0.74 74.89 -3.27 80.14 -6.46C85.39 -9.65 89.57 -13.32 92.66 -17.48C95.76 -21.64 97.31 -26.02 97.31 -30.62C97.31 -35.17 96.09 -39.69 93.64 -44.21C91.19 -48.72 87.8 -53.03 83.46 -57.13C79.12 -61.23 74 -65.04 68.1 -68.55C62.2 -72.06 55.82 -75.1 48.94 -77.66C42.07 -80.23 34.84 -82.25 27.26 -83.73C19.68 -85.2 12.05 -85.94 4.38 -85.94C-1.34 -85.94 -6.53 -85.72 -11.2 -85.27C-15.86 -84.83 -20.22 -84.14 -24.29 -83.19C-28.9 -81.95 -31.2 -78.95 -31.2 -74.17C-31.2 -71.75 -30.78 -70.02 -29.96 -68.99C-29.13 -67.96 -27.72 -67.38 -25.71 -67.26C-25.36 -67.26 -24.91 -67.29 -24.38 -67.35C-23.85 -67.41 -23.2 -67.5 -22.44 -67.62ZM11.64 -69.03C21.08 -68.03 29.84 -66.33 37.92 -63.94C46.01 -61.55 53.03 -58.69 58.99 -55.36C64.95 -52.03 69.62 -48.32 73.02 -44.25C76.41 -40.18 78.11 -35.99 78.11 -31.68C78.11 -29.09 77.15 -26.58 75.23 -24.16C73.31 -21.74 70.74 -19.62 67.53 -17.79C64.31 -15.96 60.6 -14.5 56.38 -13.41C52.16 -12.32 47.75 -11.77 43.15 -11.77C39.66 -11.77 36.29 -11.96 33.01 -12.35C29.74 -12.73 26.83 -13.23 24.29 -13.85C21.76 -14.47 19.72 -15.18 18.19 -15.98C16.65 -16.77 15.86 -17.61 15.8 -18.5C15.33 -23.93 14.87 -28.81 14.43 -33.14C13.98 -37.48 13.53 -41.41 13.05 -44.92C12.58 -48.43 12.11 -51.6 11.64 -54.43C11.17 -57.26 10.66 -59.92 10.13 -62.4C9.78 -63.93 9.51 -65.05 9.34 -65.76C9.16 -66.47 9.07 -66.97 9.07 -67.26C9.07 -68.44 9.93 -69.03 11.64 -69.03Z M179.62 -19.38C177.44 -17.67 175.11 -16.15 172.63 -14.82C170.15 -13.5 167.6 -12.36 164.97 -11.42C162.35 -10.47 159.69 -9.75 157.01 -9.25C154.32 -8.75 151.71 -8.5 149.17 -8.5C146.52 -8.5 143.94 -8.82 141.43 -9.47C138.92 -10.12 136.71 -10.99 134.79 -12.08C132.87 -13.17 131.34 -14.43 130.19 -15.84C129.04 -17.26 128.46 -18.73 128.46 -20.27C128.46 -21.27 128.83 -22.07 129.57 -22.66C130.31 -23.25 131.27 -23.54 132.45 -23.54L163.16 -26.64C166.34 -26.93 169.19 -27.55 171.7 -28.5C174.21 -29.44 176.34 -30.67 178.11 -32.17C179.88 -33.68 181.24 -35.43 182.19 -37.44C183.13 -39.44 183.6 -41.66 183.6 -44.08C183.6 -47.56 182.79 -50.8 181.17 -53.81C179.55 -56.82 177.32 -59.45 174.49 -61.69C171.65 -63.93 168.34 -65.68 164.53 -66.95C160.72 -68.22 156.64 -68.86 152.27 -68.86C148.08 -68.86 143.97 -68.19 139.93 -66.86C135.88 -65.54 132.09 -63.68 128.55 -61.29C125.01 -58.9 121.83 -56.02 118.99 -52.66C116.16 -49.3 113.83 -45.58 112 -41.51C111 -39.21 109.26 -38.06 106.78 -38.06L105.45 -38.06C103.62 -38.06 102.28 -37.58 101.43 -36.64C100.57 -35.7 100 -34.16 99.7 -32.04L99.52 -30.27C99.41 -30.03 99.35 -29.5 99.35 -28.68C99.35 -26.67 99.94 -25.14 101.12 -24.07C102.3 -23.01 103.98 -22.48 106.16 -22.48C107.16 -22.48 107.89 -22.23 108.33 -21.73C108.77 -21.23 109.26 -20.15 109.79 -18.5C110.73 -14.54 112.33 -10.99 114.57 -7.83C116.81 -4.68 119.57 -1.98 122.84 0.27C126.12 2.51 129.85 4.23 134.04 5.44C138.23 6.65 142.71 7.26 147.49 7.26C151.27 7.26 155.07 6.92 158.91 6.24C162.74 5.56 166.46 4.57 170.06 3.27C173.66 1.98 177.11 0.4 180.42 -1.46C183.72 -3.32 186.79 -5.43 189.62 -7.79C191.39 -9.38 192.28 -11.06 192.28 -12.83C192.28 -13.66 192.08 -14.5 191.7 -15.36C191.32 -16.21 190.68 -17.32 189.8 -18.67C188.85 -19.68 188 -20.41 187.23 -20.89C186.46 -21.36 185.61 -21.6 184.66 -21.6C183.01 -21.6 181.33 -20.86 179.62 -19.38ZM159.88 -42.22C157.82 -41.86 155.4 -41.48 152.63 -41.07C149.85 -40.65 147.11 -40.28 144.39 -39.96C141.68 -39.64 139.2 -39.35 136.96 -39.12C134.72 -38.88 133.1 -38.76 132.09 -38.76C130.44 -38.76 129.61 -39.44 129.61 -40.8C129.61 -42.16 130.26 -43.53 131.56 -44.92C132.86 -46.3 134.54 -47.57 136.61 -48.72C138.67 -49.87 140.97 -50.8 143.51 -51.51C146.05 -52.22 148.52 -52.57 150.94 -52.57C152.6 -52.57 154.16 -52.39 155.63 -52.04C157.11 -51.69 158.41 -51.2 159.53 -50.58C160.65 -49.96 161.54 -49.27 162.18 -48.5C162.83 -47.73 163.16 -46.91 163.16 -46.02C163.16 -45.02 162.83 -44.18 162.18 -43.5C161.54 -42.82 160.77 -42.39 159.88 -42.22Z"></path></g></g></g></svg>